<?xml version="1.0" encoding="UTF-8" standalone="no"?>
<!-- Created with Inkscape (http://www.inkscape.org/) -->

<svg
   xmlns:dc="http://purl.org/dc/elements/1.1/"
   xmlns:cc="http://creativecommons.org/ns#"
   xmlns:rdf="http://www.w3.org/1999/02/22-rdf-syntax-ns#"
   xmlns:svg="http://www.w3.org/2000/svg"
   xmlns="http://www.w3.org/2000/svg"
   xmlns:sodipodi="http://sodipodi.sourceforge.net/DTD/sodipodi-0.dtd"
   xmlns:inkscape="http://www.inkscape.org/namespaces/inkscape"
   width="343pt"
   height="340pt"
   id="svg3334"
   version="1.1"
   inkscape:version="0.48.0 r9654"
   sodipodi:docname="New document 1">
  <defs
     id="defs3336" />
  <sodipodi:namedview
     pagecolor="#ffffff"
     bordercolor="#666666"
     borderopacity="1.0"
     inkscape:pageopacity="0.0"
     inkscape:pageshadow="2"
     inkscape:zoom="0.8"
     inkscape:cx="210"
     inkscape:cy="210"
     inkscape:document-units="pt"
     inkscape:current-layer="layer1"
     id="namedview3338"
     showgrid="false"
     inkscape:window-width="1366"
     inkscape:window-height="721"
     inkscape:window-x="-4"
     inkscape:window-y="-4"
     inkscape:window-maximized="1" />
  <metadata
     id="metadata3340">
    <rdf:RDF>
      <cc:Work
         rdf:about="">
        <dc:format>image/svg+xml</dc:format>
        <dc:type
           rdf:resource="http://purl.org/dc/dcmitype/StillImage" />
        <dc:title></dc:title>
      </cc:Work>
    </rdf:RDF>
  </metadata>
  <g
     inkscape:label="Layer 1"
     inkscape:groupmode="layer"
     id="layer1">
    <g
       style="display:inline"
       id="g4555"
       transform="matrix(3.3918304,0,0,3.3918304,-868.86683,-356.57889)">
      <path
         sodipodi:nodetypes="cccc"
         inkscape:connector-curvature="0"
         id="path4297"
         d="m 311.33969,133.59779 c -12.74748,-10.5605 -3.87299,-20.11467 -5.05077,-23.99112 -8.92309,6.82412 -15.75672,19.44139 -3.53553,33.84011 z"
         style="fill:#ffdad5;fill-opacity:1;stroke:#a88080;stroke-width:1.051;stroke-linecap:butt;stroke-linejoin:miter;stroke-miterlimit:4;stroke-opacity:1;stroke-dasharray:none" />
      <path
         sodipodi:nodetypes="ccccc"
         inkscape:connector-curvature="0"
         id="path4289"
         d="m 319.16837,135.61809 c 0.81342,11.04253 -3.95547,12.16095 -9.09138,12.62691 -5.36789,-0.16719 -6.64447,-3.60743 -8.83883,-6.31345 l 9.09137,-10.35407 c 1.80139,2.49176 4.35591,4.23039 8.83884,4.04061 z"
         style="fill:#b7b7b7;fill-opacity:1;stroke:#000000;stroke-width:1px;stroke-linecap:butt;stroke-linejoin:miter;stroke-opacity:1" />
      <path
         sodipodi:nodetypes="cccc"
         inkscape:connector-curvature="0"
         id="path4295"
         d="m 339.19285,129.88369 c 6.00241,-3.00121 5.04608,-17.29652 1.76777,-21.97081 7.91465,5.71197 13.81632,14.04304 5.55583,31.31472 z"
         style="fill:#ffdad5;fill-opacity:1;stroke:#a88080;stroke-width:1.051;stroke-linecap:butt;stroke-linejoin:miter;stroke-miterlimit:4;stroke-opacity:1;stroke-dasharray:none" />
      <path
         sodipodi:nodetypes="ccccc"
         inkscape:connector-curvature="0"
         id="path4293"
         d="m 342.40188,144.45693 c 1.88506,-2.23973 3.818,-4.43158 5.05076,-7.32361 -1.8696,-4.34202 -5.16249,-5.83745 -8.33376,-7.57614 -2.23796,2.62397 -3.70825,3.7126 -5.3033,5.05076 z"
         style="fill:#b7b7b7;fill-opacity:1;stroke:#000000;stroke-width:1px;stroke-linecap:butt;stroke-linejoin:miter;stroke-opacity:1" />
      <path
         sodipodi:nodetypes="ccc"
         inkscape:connector-curvature="0"
         id="path4291"
         d="m 310.58207,149.5077 c 11.58318,3.24988 22.83792,4.52916 33.0825,-0.25255 1.14911,-12.58551 -22.88227,-28.42951 -33.0825,0.25255 z"
         style="fill:#5d5d5d;fill-opacity:1;stroke:#000000;stroke-width:1px;stroke-linecap:butt;stroke-linejoin:miter;stroke-opacity:1" />
      <g
         transform="translate(462.94307,-485.74582)"
         id="g4403">
        <g
           id="g4387"
           transform="translate(-172.23101,-5.0507627)">
          <path
             inkscape:connector-curvature="0"
             id="path4361"
             d="m 7.6785714,704.32647 20.5357146,0 -2.321429,7.5 -14.821428,1.07143 z"
             style="fill:#cf9033;fill-opacity:1;stroke:#923800;stroke-width:1px;stroke-linecap:butt;stroke-linejoin:miter;stroke-opacity:1" />
          <path
             inkscape:connector-curvature="0"
             id="path4363"
             d="m 54.821429,705.21933 1.607142,6.96428 15.892858,-0.35714 2.321428,-7.67857 -5.357143,-4.10715 z"
             style="fill:#cf9033;fill-opacity:1;stroke:#923800;stroke-width:1px;stroke-linecap:butt;stroke-linejoin:miter;stroke-opacity:1" />
          <path
             sodipodi:nodetypes="cccccccccc"
             inkscape:connector-curvature="0"
             id="path4365"
             d="m 6.7857143,711.11218 2.8571428,-2.14285 c 4.6399219,3.40166 10.6052249,2.82718 17.1428569,0.53571 l 2.321429,1.42857 -2.142857,2.67857 1.785714,1.42857 0,1.60715 -19.8214286,0.35714 2.1428576,-2.67857 z"
             style="fill:#7a2f07;fill-opacity:1;stroke:#000000;stroke-width:1px;stroke-linecap:butt;stroke-linejoin:miter;stroke-opacity:1" />
          <path
             sodipodi:nodetypes="ccccccccc"
             inkscape:connector-curvature="0"
             id="path4367"
             d="m 53.571429,710.04075 1.428571,3.75 -1.071429,1.25 0,2.32143 19.285715,-0.17857 -2.321429,-2.14286 3.928572,-4.10714 -1.785715,-1.25 c -12.537615,3.32173 -14.407122,0.99565 -19.464285,0.35714 z"
             style="fill:#7a2f07;fill-opacity:1;stroke:#000000;stroke-width:1px;stroke-linecap:butt;stroke-linejoin:miter;stroke-opacity:1" />
        </g>
        <path
           style="fill:#277aa3;fill-opacity:1;stroke:#00052a;stroke-width:0.80000001;stroke-linecap:butt;stroke-linejoin:miter;stroke-miterlimit:4;stroke-opacity:1;stroke-dasharray:none"
           d="m -165.98101,699.09714 c 22.70263,4.21691 45.06143,7.5295 70.535715,-3.57143 l -5.714285,-9.64286 c 7.378481,-28.9042 0.32073,-35.74673 -8.21429,-43.92857 -13.92687,-1.91071 -33.81369,-1.89015 -53.57142,7.14286 -8.6097,12.32173 -5.31173,27.76332 0,42.5 z"
           id="path4385"
           inkscape:connector-curvature="0"
           sodipodi:nodetypes="ccccccc" />
        <g
           id="g4380"
           transform="translate(-172.23101,-5.0507627)">
          <path
             sodipodi:nodetypes="ccccc"
             inkscape:connector-curvature="0"
             id="path4387"
             d="m 7.7024131,689.84369 c -0.7698682,1.64226 -0.3707988,4.70545 0.8838835,6.9448 22.2189884,2.66814 43.4829934,5.4969 65.0285704,-1.76777 1.436384,-2.11237 0.666599,-6.13736 -1.641498,-7.3236 -14.563033,8.86883 -43.647008,5.89512 -64.2709559,2.14657 z"
             style="fill:#843304;fill-opacity:1;stroke:#000000;stroke-width:1px;stroke-linecap:butt;stroke-linejoin:miter;stroke-opacity:1" />
          <g
             transform="translate(4.6428571,-13.214286)"
             id="g4399">
            <path
               style="fill:#fcc200;fill-opacity:1;stroke:#8f5500;stroke-width:1px;stroke-linecap:butt;stroke-linejoin:round;stroke-opacity:1"
               d="m 36.862682,708.26301 c 1.524623,-6.2715 17.110059,-6.54073 19.192898,-0.50507 0.42607,1.23467 -5.685019,4.14465 -5.685019,4.14465 l 0.31355,3.12554 -1.889772,-1.85563 -1.531439,2.52562 -1.496857,-2.63974 -2.149666,2.07784 -0.190081,-3.33268 c 0,0 -6.289861,-2.46947 -6.563614,-3.54053 z"
               id="path4389"
               inkscape:connector-curvature="0"
               sodipodi:nodetypes="cscccccccc" />
            <rect
               style="fill:#000000;fill-opacity:1;stroke:#8f5500;stroke-width:0.73000002;stroke-linejoin:round;stroke-miterlimit:4;stroke-opacity:1;stroke-dasharray:none"
               id="rect4395"
               width="5.0177941"
               height="3.9121785"
               x="300.49149"
               y="639.12634"
               ry="1.9560893"
               transform="matrix(0.92902595,0.37001458,-0.37001458,0.92902595,0,0)" />
            <rect
               transform="matrix(-0.92902595,0.37001458,0.37001458,0.92902595,0,0)"
               ry="1.7445259"
               y="674.1026"
               x="212.69264"
               height="3.4890518"
               width="4.4750881"
               id="rect4397"
               style="fill:#000000;fill-opacity:1;stroke:#8f5500;stroke-width:0.73000002;stroke-linejoin:round;stroke-miterlimit:4;stroke-opacity:1;stroke-dasharray:none" />
          </g>
        </g>
        <path
           style="fill:#3dbeff;fill-opacity:1;stroke:none"
           d="m -114.82767,673.08725 c -11.69232,-0.61541 -21.38714,-2.98845 -30.17858,-7.38694 -5.93155,-2.96765 -10.9655,-6.58008 -15.5848,-11.18387 -2.06924,-2.0623 -3.14915,-3.27816 -3.07838,-3.46594 0.0311,-0.0826 0.26187,-0.477 0.5128,-0.87649 l 0.45622,-0.72636 1.16851,-0.51559 c 6.62427,-2.92287 14.44643,-5.18052 22.10473,-6.37994 9.13498,-1.43068 19.54432,-1.54533 28.88786,-0.31818 l 0.94135,0.12363 0.93869,0.86924 c 2.04015,1.88923 4.32521,4.44534 5.64092,6.31003 2.46607,3.49507 3.60559,6.59638 4.322957,11.76531 0.185355,1.33557 0.157269,7.40404 -0.04298,9.28572 -0.208789,1.96195 -0.227532,2.05357 -0.420137,2.05357 -0.08755,0 -0.555173,0.0401 -1.03917,0.0892 -3.43616,0.34816 -11.19676,0.53735 -14.63,0.35665 l 0,0 z"
           id="path4399"
           inkscape:connector-curvature="0" />
        <path
           style="fill:#3dbeff;fill-opacity:1;stroke:none"
           d="m -124.56027,701.20215 c -3.31833,-1.00041 -7.13866,-2.96907 -8.96381,-4.61916 l -1.57191,-1.42112 5.26786,-0.0146 5.26786,-0.0147 0,1.07143 c 0,1.25719 0.6599,1.40384 1.60714,0.35714 0.84354,-0.9321 0.95897,-0.9074 1.67982,0.3594 0.76485,1.34413 1.11305,1.34194 1.97056,-0.0124 0.68342,-1.07939 0.68614,-1.08012 1.34043,-0.35714 1.06128,1.17271 1.67644,0.9294 1.54861,-0.61251 l -0.11085,-1.33695 4.74154,-0.79431 c 2.60785,-0.43687 6.59082,-1.30317 8.85104,-1.92511 2.26022,-0.62194 4.15831,-1.06913 4.217978,-0.99374 0.455071,0.57491 2.417868,4.31313 2.317064,4.41293 -0.317489,0.31431 -5.843252,2.3663 -9.068042,3.3674 -4.32558,1.34283 -11.1488,2.78626 -14.38773,3.04367 -1.77674,0.14121 -2.97901,0.0109 -4.70756,-0.51022 z"
           id="path4401"
           inkscape:connector-curvature="0" />
      </g>
      <g
         transform="translate(268.49133,-510.8475)"
         id="g4319">
        <path
           style="fill:#dc2100;fill-opacity:1;stroke:#87110d;stroke-width:1px;stroke-linecap:butt;stroke-linejoin:miter;stroke-opacity:1"
           d="m 46.467017,662.94838 c -3.354698,0.45833 -6.409922,1.81508 -9.091373,4.29315 l 7.828682,5.55584 -9.848987,10.10153 12.879445,-1.51524 -2.77792,10.85915 11.616755,-5.05077 9.343911,11.8693 4.293148,-12.87945 10.606602,1.01015 -3.788072,-8.58629 c 3.282996,0.53113 6.565991,0.37535 9.848987,0.25254 -1.028659,-3.24598 -2.883721,-4.83916 -4.545687,-6.81853 l 6.565992,-2.77792 c -5.119327,-4.19946 -10.116554,-7.66632 -14.89975,-9.84899 -9.343911,10.39427 -18.687822,6.93977 -28.031733,3.53553 z"
           id="path4303"
           inkscape:connector-curvature="0"
           sodipodi:nodetypes="cccccccccccccccc" />
        <path
           style="fill:#fe2601;fill-opacity:1;stroke:none"
           d="m 79.374674,685.87782 c -5.005984,-1.63421 -8.617957,-3.18825 -11.506269,-4.95052 -5.019073,-3.06233 -8.154869,-6.85205 -9.696581,-11.71867 -0.262601,-0.82894 -0.663147,-2.4671 -0.615,-2.51525 0.0088,-0.009 0.297585,0.0134 0.641769,0.0494 4.078169,0.42592 7.594536,-0.2774 10.916719,-2.18351 1.644121,-0.94331 3.312281,-2.26264 4.849773,-3.83562 l 0.619758,-0.63406 c 5.443891,2.26277 9.635957,5.26698 13.685299,9.05333 0.01379,0.0134 -1.364126,0.6112 -3.062025,1.3285 -1.6979,0.71731 -3.098894,1.31445 -3.11332,1.32699 2.486457,2.18862 3.572629,3.70513 4.29466,6.51763 -3.388088,0.68001 -6.036446,0.46761 -9.63522,-0.23137 -0.0075,0.008 0.786716,1.82761 1.764983,4.04464 0.978267,2.21703 1.762715,4.03002 1.743219,4.02887 -0.0195,-10e-4 -0.418991,-0.1273 -0.887765,-0.28034 l 0,0 z"
           id="path4317"
           inkscape:connector-curvature="0"
           sodipodi:nodetypes="cssccssccscccscccc" />
      </g>
      <path
         sodipodi:nodetypes="ccccccccc"
         inkscape:connector-curvature="0"
         id="path4299"
         d="m 311.71849,149.6971 0.56821,2.77792 c 5.89256,1.63534 10.58556,2.97547 16.47812,3.34613 l 0.25253,3.03046 5.05077,0 0,-3.78808 c 3.45135,-1.44726 7.21838,-3.01439 10.66973,-5.80837 l -0.88388,-1.32583 c -11.70193,7.28958 -21.18347,3.60444 -32.13548,1.76777 z"
         style="fill:#bababa;fill-opacity:1;stroke:#373737;stroke-width:0.89999998;stroke-linecap:butt;stroke-linejoin:miter;stroke-miterlimit:4;stroke-opacity:1;stroke-dasharray:none" />
      <path
         sodipodi:nodetypes="cc"
         inkscape:connector-curvature="0"
         id="path4301"
         d="m 320.30678,161.99801 c 5.64586,-1.67775 11.04408,-3.60314 19.95051,-2.02031"
         style="fill:none;stroke:#000000;stroke-width:2.20000005;stroke-miterlimit:4;stroke-opacity:1;stroke-dasharray:none" />
      <path
         inkscape:connector-curvature="0"
         id="path4309"
         d="m 332.60786,151.50468 c -0.0862,-0.0836 -1.04055,-0.52466 -2.12085,-0.98019 -5.61456,-2.36746 -9.27267,-6.11187 -9.93372,-10.1681 -0.18649,-1.14428 0.0183,-4.46234 0.28958,-4.69121 0.37389,-0.31549 2.17065,-1.04888 3.25871,-1.33011 5.88848,-1.522 13.2439,1.59969 17.03223,7.22858 1.21484,1.80506 2.5014,5.08292 2.33172,5.94063 -0.15946,0.80605 -4.38372,2.71126 -7.74182,3.49169 -2.66071,0.61835 -2.95354,0.66616 -3.11585,0.50871 z"
         style="fill:#7b7b7b;fill-opacity:1;stroke:none" />
      <path
         sodipodi:nodetypes="ccccccccccc"
         inkscape:connector-curvature="0"
         id="path2996"
         d="m 272.67977,127.07846 5.1681,7.4753 6.18327,-2.2149 2.30719,7.10614 -1.75347,2.76863 6.82928,5.81411 3.41465,-3.6915 7.65986,0.0923 -0.0923,5.99869 9.41334,-0.46144 c -0.42114,-22.30367 -8.60624,-35.58093 -39.12993,-22.88732 z"
         style="fill:#b7b7b7;fill-opacity:1;stroke:#000000;stroke-width:0.87857765;stroke-linecap:butt;stroke-linejoin:miter;stroke-miterlimit:4;stroke-opacity:1;stroke-dasharray:none" />
      <path
         sodipodi:nodetypes="ccccc"
         inkscape:connector-curvature="0"
         id="path3004"
         d="m 278.77075,140.27559 -4.70667,4.4298 c 30.47092,19.80348 61.10248,39.3545 88.22691,64.41672 l 3.41464,-6.55242 c -30.65225,-20.20671 -59.22387,-41.10697 -86.93488,-62.2941 z"
         style="fill:#8f5500;fill-opacity:1;stroke:#000000;stroke-width:0.98193967;stroke-linecap:butt;stroke-linejoin:miter;stroke-miterlimit:4;stroke-opacity:1;stroke-dasharray:none" />
      <g
         transform="translate(528.83067,-625.99092)"
         id="g4336">
        <path
           style="fill:none;stroke:#863d00;stroke-width:1px;stroke-linecap:butt;stroke-linejoin:miter;stroke-opacity:1"
           d="m -172.93419,785.775 c 7.49665,-0.92896 14.6543,4.24005 19.66452,20.71615"
           id="path4256"
           inkscape:connector-curvature="0"
           sodipodi:nodetypes="cc" />
        <path
           style="fill:none;stroke:#7d2e00;stroke-width:1px;stroke-linecap:butt;stroke-linejoin:miter;stroke-opacity:1"
           d="m -162.75562,803.63215 c -10.03334,-1.45505 -11.78679,5.25359 -16.72485,11.36342 -1.3637,1.68729 -3.44579,-2.38467 -3.88925,-1.13188 -2.23419,6.31168 -4.47276,1.04457 -5.39821,2.11348 -5.09123,17.30397 33.89161,9.61193 36.93323,-5.57175 0.35566,-1.77545 -1.15565,-2.77427 -2.70663,-4.63042"
           id="path4258"
           inkscape:connector-curvature="0"
           sodipodi:nodetypes="csscsc" />
        <path
           style="fill:none;stroke:#771f00;stroke-width:1px;stroke-linecap:butt;stroke-linejoin:miter;stroke-opacity:1"
           d="m -173.20205,785.59643 c 3.25583,5.79441 9.47326,9.28535 8.92857,18.03571"
           id="path4275"
           inkscape:connector-curvature="0"
           sodipodi:nodetypes="cc" />
        <path
           style="fill:#e79e37;fill-opacity:1;stroke:none"
           d="m -185.23718,824.11457 c -2.89886,-1.38945 -3.95866,-3.75187 -3.23104,-7.20241 0.0571,-0.27056 0.12304,-0.47826 0.15194,-0.47826 0.0281,0 0.26153,0.14246 0.51873,0.31658 0.89042,0.60278 1.48789,0.83321 2.0331,0.78412 1.0993,-0.099 1.94614,-1.07795 2.77994,-3.2137 0.0272,-0.0696 0.10487,-0.0173 0.52184,0.35084 0.64061,0.56567 0.92496,0.78329 1.27459,0.97546 0.35626,0.19583 0.83614,0.31356 1.1122,0.27288 0.25519,-0.0376 0.60445,-0.21002 0.79675,-0.39329 0.35974,-0.34288 1.41014,-1.75989 2.90161,-3.91432 1.76038,-2.54289 2.51578,-3.52439 3.46571,-4.50306 1.95362,-2.01273 4.00948,-2.96155 6.77677,-3.12761 0.78535,-0.0471 1.94775,-0.004 2.823,0.1039 0.27009,0.0334 0.495,0.0575 0.49982,0.0536 0.0197,-0.0161 0.13505,-0.98813 0.11931,-1.00557 -0.0145,-0.016 -0.83257,-0.12878 -0.98088,-0.1352 -0.0334,-10e-4 -0.058,-0.30745 -0.0763,-0.95079 -0.0387,-1.35598 -0.18033,-2.31139 -0.52649,-3.55079 -0.55075,-1.97193 -1.54164,-3.86703 -3.14448,-6.01389 -0.38865,-0.52056 -0.75756,-0.98542 -2.48001,-3.12505 -1.00801,-1.25214 -1.23288,-1.54855 -1.84583,-2.43304 l -0.47954,-0.69196 0.8188,-0.0138 c 9.52591,-0.42814 14.80071,10.87751 16.8942,18.11091 l 0.37364,1.08821 -0.14635,0.11715 c -0.0805,0.0644 -0.25994,0.2156 -0.39879,0.33594 l -0.25245,0.21879 0.0906,0.11603 c 0.0498,0.0638 0.42322,0.48337 0.82977,0.93233 0.89111,0.98408 1.16147,1.3103 1.36688,1.64926 0.32912,0.5431 0.40786,1.01344 0.27484,1.64158 -2.02392,9.75174 -22.07682,18.71262 -32.86187,13.68516 z"
           id="path4281"
           inkscape:connector-curvature="0"
           sodipodi:nodetypes="ccssccccccsscccccsssssccccccccsscc" />
        <path
           style="fill:#d87d1b;fill-opacity:1;stroke:none"
           d="m -185.65202,823.85068 c -1.06229,-0.58354 -1.96568,-1.48147 -2.44044,-2.42571 -0.44299,-0.88105 -0.64366,-2.16383 -0.52493,-3.35559 0.0643,-0.6452 0.22006,-1.50858 0.28946,-1.60423 0.0455,-0.0628 0.11618,-0.0315 0.56712,0.25112 1.33689,0.8378 1.88657,0.94927 2.72255,0.55209 0.30856,-0.1466 0.89448,-0.71355 1.15749,-1.12001 0.22644,-0.34995 0.59544,-1.07396 0.78872,-1.54754 0.0836,-0.20478 0.16718,-0.37259 0.18578,-0.37291 0.0186,-3.2e-4 0.3465,0.26128 0.72867,0.58135 0.73893,0.61886 1.13644,0.86338 1.59674,0.98223 0.38126,0.0984 0.68401,0.0628 1.02554,-0.12064 0.4617,-0.248 0.9877,-0.92663 3.34362,-4.31378 1.86498,-2.68133 2.54411,-3.55956 3.49686,-4.52206 1.87158,-1.89071 3.63612,-2.74784 6.24059,-3.03139 0.77154,-0.0839 2.09368,-0.063 3.13363,0.0497 0.34535,0.0375 0.64068,0.0682 0.65631,0.0682 0.0156,4e-5 0.0381,-0.0374 0.05,-0.083 0.0187,-0.0723 0.0884,-0.0871 0.53222,-0.11279 1.93593,-0.11242 3.26548,0.11487 4.6817,0.80033 1.02117,0.49425 1.83112,1.08798 2.78272,2.03986 0.34794,0.34805 0.70679,0.72643 0.79742,0.84084 l 0.1648,0.20804 -0.3058,0.31814 c -0.34128,0.35504 -0.57237,0.75889 -0.73082,1.27722 -0.0898,0.29388 -0.1034,0.43229 -0.10184,1.03963 0.001,0.48399 0.0247,0.80158 0.076,1.0272 0.19671,0.86637 0.51309,1.54142 0.91239,1.9467 l 0.28026,0.28444 -0.16596,0.2583 c -0.54804,0.85294 -1.2541,1.7321 -2.09455,2.60808 l -0.52041,0.5424 -0.23519,-0.67801 c -0.59366,-1.71138 -1.35319,-3.19039 -2.15876,-4.20368 -0.97415,-1.22535 -2.12552,-2.08846 -3.85726,-2.89159 -0.50667,-0.23497 -0.51131,-0.23611 -0.79338,-0.19576 -3.22914,0.46188 -6.01639,1.53909 -9.25374,3.57637 -3.68137,2.31669 -7.64263,5.88857 -12.10276,10.91311 -0.2923,0.32928 -0.54458,0.59842 -0.56063,0.59806 -0.0161,-3.6e-4 -0.17987,-0.0834 -0.36404,-0.18458 l 0,0 z"
           id="path4304"
           inkscape:connector-curvature="0" />
        <path
           sodipodi:nodetypes="cccccc"
           inkscape:connector-curvature="0"
           id="path4283"
           d="m -172.08181,823.77094 c -1.3985,-2.94852 -2.00499,-6.21132 -0.33805,-10.37624 1.33415,2.97816 2.91878,6.22365 9.08592,6.56019 -3.65978,-3.47601 -3.281,-6.78849 -3.38137,-10.12036 2.34071,2.51774 5.10313,4.45523 9.5666,4.0522 -6.01727,-3.35434 -2.44494,-4.70857 -3.13058,-6.95089"
           style="fill:none;stroke:#712b04;stroke-width:1.39999998;stroke-linejoin:round;stroke-miterlimit:4;stroke-opacity:1;stroke-dasharray:none" />
        <path
           style="fill:#d87d1b;fill-opacity:1;stroke:none"
           d="m -166.22593,794.18147 c -0.24336,-0.3912 -0.68231,-1.03339 -1.02972,-1.50646 -0.39236,-0.53429 -0.55793,-0.74481 -2.01241,-2.55882 -1.22683,-1.53008 -1.57378,-1.96985 -1.86075,-2.35852 -0.32266,-0.437 -1.05689,-1.49089 -1.04616,-1.50163 0.0142,-0.0142 1.66624,-0.008 1.85228,0.007 0.45738,0.037 0.87561,0.087 1.10141,0.13176 0.0228,0.005 0.0618,0.048 0.16266,0.181 1.19623,1.57813 2.16871,3.26146 2.91233,5.04112 0.31765,0.76021 0.64147,1.68891 0.87365,2.50558 0.0253,0.089 0.0486,0.17062 0.0517,0.18136 0.005,0.0184 -0.0215,0.0195 -0.4554,0.0195 l -0.46113,-2e-5 -0.0885,-0.14228 z"
           id="path4310"
           inkscape:connector-curvature="0" />
      </g>
      <path
         inkscape:connector-curvature="0"
         id="path3808"
         d="m 288.29022,144.98058 c -1.72626,-1.45804 -3.17455,-2.68672 -3.21842,-2.73038 -0.0624,-0.0621 0.10561,-0.36935 0.77052,-1.4094 l 0.85028,-1.33002 -0.12457,-0.37182 c -0.45346,-1.35346 -2.24289,-6.85093 -2.25753,-6.93556 -0.0145,-0.0836 0.15567,-0.13839 0.8741,-0.28169 1.7709,-0.35323 2.99339,-0.47693 4.75755,-0.48141 1.03866,-0.003 1.83204,0.0275 2.21358,0.0839 2.97374,0.44028 4.94848,1.3438 6.67379,3.05352 1.17839,1.16775 2.02357,2.49409 2.70942,4.25195 0.51419,1.31788 1.01587,3.46908 1.13545,4.86881 l 0.041,0.48042 -3.95831,-0.0442 -3.9583,-0.0442 -1.64468,1.77284 c -0.90456,0.97506 -1.6628,1.77177 -1.68496,1.77047 -0.0221,-0.002 -1.45269,-1.19531 -3.17896,-2.65335 z"
         style="fill:#a0a0a0;stroke:none" />
      <g
         transform="translate(528.83067,-625.99092)"
         id="g4291">
        <path
           style="fill:#eaa13a;fill-opacity:1;stroke:#a54020;stroke-width:1.051;stroke-miterlimit:4;stroke-opacity:1;stroke-dasharray:none"
           d="m -224.72936,824.74654 c -25.7326,2.50599 -16.28577,-52.70398 3.5491,-27.87946"
           id="path4338"
           inkscape:connector-curvature="0"
           sodipodi:nodetypes="cc" />
        <path
           style="fill:#000000;fill-opacity:0;stroke:none"
           d="m -227.87906,823.43087 c -0.65479,-0.0878 -1.73416,-0.35689 -2.3986,-0.59807 -1.09944,-0.39908 -1.22706,-0.41255 -1.41916,-0.14983 -0.19023,0.26015 -0.29729,0.23822 -1.08354,-0.22197 -2.50223,-1.46452 -4.73394,-4.5381 -5.83335,-8.03385 -0.81167,-2.58084 -1.07538,-4.41728 -1.07698,-7.5 -0.002,-4.36929 0.71649,-7.71558 2.33973,-10.89286 1.08445,-2.12267 2.86339,-3.96318 4.37448,-4.52587 3.02128,-1.12504 6.26578,0.23229 9.83989,4.1165 l 1.3527,1.47006 -0.57732,0.59897 c -0.31753,0.32943 -1.54161,1.20569 -2.72018,1.94723 -4.1189,2.59157 -5.64205,3.67925 -6.86531,4.90251 -2.35485,2.35485 -3.17295,4.22056 -2.99243,6.82435 0.0554,0.79858 0.20672,1.78025 0.33634,2.18148 0.22827,0.70657 0.25361,0.72474 0.8057,0.57793 l 0.57001,-0.15158 -0.26406,-0.88917 c -0.35861,-1.20759 -0.3627,-2.91592 -0.01,-4.12956 0.61036,-2.09955 2.80293,-4.32197 6.66352,-6.75426 5.31681,-3.34974 6.2748,-4.14658 6.61176,-5.4996 0.20279,-0.81424 0.002,-1.86616 -0.48735,-2.55342 l -0.36172,-0.50798 0.67529,-0.11329 c 1.3025,-0.2185 2.37049,-0.6507 2.72659,-1.10341 0.50517,-0.64221 0.47085,-1.7427 -0.0824,-2.64089 -0.24197,-0.39285 -0.44245,-0.76907 -0.44551,-0.83603 -0.003,-0.067 0.60583,-0.25777 1.3531,-0.42403 5.7108,-1.27053 8.71722,2.31113 8.40238,10.01006 -0.28884,7.06335 -3.54305,15.02834 -8.15321,19.95579 -3.58206,3.82859 -7.33021,5.47026 -11.28051,4.94079 z"
           id="path4352"
           inkscape:connector-curvature="0" />
        <path
           style="fill:#eaa13a;fill-opacity:1;stroke:#a54020;stroke-opacity:1"
           d="m -233.83651,814.03226 c -3.88614,-10.65398 12.53971,-13.27375 13.15575,-17.7992 0.12573,-0.92366 -2.2375,-1.77046 -1.90575,-3.09366 0.6782,-0.21039 7.80761,0.2778 3.21429,-4.46429 22.50697,-9.15865 8.97812,44.03326 -12.32143,34.28572"
           id="path4336"
           inkscape:connector-curvature="0"
           sodipodi:nodetypes="csccc" />
        <path
           style="fill:none;stroke:#712b04;stroke-width:1.39999998;stroke-linejoin:round;stroke-miterlimit:4;stroke-opacity:1;stroke-dasharray:none"
           d="m -211.43007,802.14139 c -2.88952,-1.51666 -6.12511,-2.25467 -10.35406,-0.75761 2.92174,1.45356 6.10045,3.16821 6.18718,9.34391 -3.32508,-3.79743 -6.65017,-3.55298 -9.97525,-3.78808 2.42097,2.44066 4.2451,5.27921 3.6618,9.72272 -3.10812,-6.14806 -4.60579,-2.63346 -6.81853,-3.40926"
           id="path4366"
           inkscape:connector-curvature="0"
           sodipodi:nodetypes="cccccc" />
        <path
           style="fill:#d77b18;fill-opacity:1;stroke:none"
           d="m -224.24858,823.16827 c -0.78708,-0.66769 -2.36103,-1.51556 -3.22534,-1.73744 -0.60977,-0.15654 -1.53428,-0.17044 -2.07796,-0.0312 -0.60006,0.15364 -1.46602,0.61576 -2.06753,1.10333 l -0.55231,0.4477 -0.25651,-0.13087 c -1.0376,-0.52934 -2.26655,-1.53278 -3.16792,-2.58661 -2.32596,-2.71938 -3.72921,-6.46286 -4.14972,-11.07026 -0.10132,-1.11009 -0.0868,-3.75258 0.0271,-4.93434 0.60011,-6.22748 3.05426,-11.12132 6.36572,-12.69392 0.778,-0.36947 1.24396,-0.47845 2.20385,-0.51543 1.07583,-0.0414 1.09751,-0.0351 0.96016,0.28113 -0.20915,0.48155 -0.73293,2.02187 -0.87998,2.58784 -0.77548,2.98464 -0.5277,5.7842 0.73573,8.31279 l 0.37491,0.75033 -0.13852,0.097 c -0.98376,0.68905 -2.30432,1.94063 -3.02037,2.8626 -1.54475,1.989 -2.10228,4.16886 -1.66818,6.52231 0.10679,0.57892 0.3932,1.61741 0.4685,1.69867 0.0395,0.0427 0.84346,-0.16987 0.93509,-0.2472 0.0116,-0.01 -0.0505,-0.25456 -0.13814,-0.54386 -0.4815,-1.58982 -0.50414,-3.15611 -0.0647,-4.47188 0.84518,-2.53033 2.81223,-4.41111 7.75776,-7.41751 3.16446,-1.92368 4.3658,-2.82571 5.06117,-3.80019 0.31988,-0.44826 0.58601,-1.12459 0.58804,-1.49439 0.002,-0.3944 -0.17214,-0.65979 -0.98066,-1.4932 -0.42109,-0.43405 -0.79801,-0.8502 -0.8376,-0.92478 -0.0702,-0.13219 -0.059,-0.13667 0.44765,-0.17878 2.0431,-0.16981 3.05412,-0.46934 3.69665,-1.09517 0.76382,-0.74399 0.65672,-1.87209 -0.29696,-3.12779 -0.18112,-0.23847 -0.31646,-0.44643 -0.30076,-0.46213 0.0575,-0.0575 1.28833,-0.40915 1.84645,-0.52748 1.23086,-0.26096 2.6212,-0.27142 3.57116,-0.0269 0.51336,0.13215 1.31675,0.50788 1.74649,0.81681 l 0.33637,0.24179 -0.47196,0.47985 c -1.89843,1.93014 -4.62221,5.74304 -6.48394,9.07658 l -0.53473,0.95746 -0.34755,0.041 c -1.18715,0.14004 -3.13607,0.66945 -3.44471,0.93573 -0.20917,0.18046 -0.30254,0.57605 -0.18817,0.79722 0.12122,0.23442 0.25927,0.34001 0.79151,0.60536 0.62242,0.31032 1.44144,0.78293 1.48836,0.85885 0.0205,0.0331 -0.11129,0.39301 -0.29283,0.79971 -0.18153,0.40671 -0.49436,1.15142 -0.69516,1.65492 -0.23789,0.5965 -0.40105,0.92283 -0.46829,0.93663 -0.0568,0.0116 -0.33694,-0.01 -0.62264,-0.0479 -0.7861,-0.10461 -3.31799,-0.26088 -3.50582,-0.21639 -0.20575,0.0488 -0.37214,0.19072 -0.4895,0.41766 -0.15639,0.30242 -0.0223,0.60277 0.53429,1.1964 1.05469,1.12494 1.73759,2.08503 2.26873,3.18961 0.38158,0.79354 0.38121,0.79028 0.20391,1.79745 l -0.0745,0.42332 -0.42017,-0.3229 c -0.51514,-0.39588 -0.92501,-0.58746 -1.46079,-0.68278 -0.49511,-0.0881 -0.86565,-0.0488 -1.88114,0.19962 -0.5475,0.13391 -0.88929,0.18362 -1.16367,0.16921 l -0.3885,-0.0204 -0.15214,0.65188 c -0.0837,0.35853 -0.14071,0.6633 -0.12675,0.67726 0.014,0.014 0.22253,0.0533 0.4635,0.0875 0.50643,0.0717 0.96138,0.0196 1.88252,-0.2156 0.34301,-0.0876 0.75496,-0.15865 0.91545,-0.15789 0.58016,0.003 1.19067,0.41729 1.7773,1.20679 l 0.35824,0.48213 0.0439,0.78056 c 0.0529,0.94025 0.18979,1.92692 0.36232,2.61146 0.2778,1.10222 0.90987,2.42056 1.49834,3.12516 0.1305,0.15626 0.25892,0.3204 0.28537,0.36476 0.0885,0.14851 -1.84744,0.95819 -2.51971,1.0538 -0.20815,0.0296 -0.28379,0.008 -0.44069,-0.12494 l 0,0 z"
           id="path4418"
           inkscape:connector-curvature="0" />
      </g>
      <g
         transform="translate(488.11638,-578.84806)"
         id="g4427">
        <path
           style="fill:#b7b7b7;fill-opacity:1;stroke:#000000;stroke-width:0.87857765;stroke-linecap:butt;stroke-linejoin:miter;stroke-miterlimit:4;stroke-opacity:1;stroke-dasharray:none"
           d="m -209.16106,728.53698 -2.12261,2.9532 -8.58274,0.55373 0.18457,-6.36785 -9.04418,0.36916 c 0.816,9.70189 -1.33593,20.16971 14.02771,26.11738 l 4.24523,-4.89125 -0.64602,5.90641 c 7.05001,0.11006 14.10257,0.24304 20.67242,-3.96837 l -4.79895,-7.19843 -5.44497,2.30719 -2.86092,-8.21359 1.93804,-2.58405 z"
           id="path3000"
           inkscape:connector-curvature="0"
           sodipodi:nodetypes="cccccccccccccc" />
        <path
           style="fill:#a0a0a0;stroke:none"
           d="m -208.90442,744.98935 c -5.88418,-0.60007 -9.08122,-3.33771 -10.47109,-8.96644 -0.26071,-1.05581 -0.70727,-3.62677 -0.63581,-3.66044 0.007,-0.003 2.0063,-0.13052 4.44352,-0.28302 2.43722,-0.15251 4.44954,-0.29655 4.47184,-0.32011 0.0223,-0.0235 0.4468,-0.60522 0.94338,-1.29259 0.49656,-0.68737 0.92684,-1.24976 0.95618,-1.24976 0.17304,0 6.86844,4.07259 7.20703,4.3838 0.0121,0.0111 -0.37372,0.54111 -0.85726,1.17789 -0.48354,0.63677 -0.89869,1.19006 -0.92257,1.22953 -0.0239,0.0395 0.61835,1.95261 1.42718,4.25145 0.80883,2.29883 1.46263,4.18758 1.45288,4.19722 -0.0372,0.0367 -2.14777,0.34447 -3.02595,0.44117 -1.09345,0.12039 -4.15472,0.17641 -4.98933,0.0913 l 0,0 z"
           id="path3804"
           inkscape:connector-curvature="0" />
        <path
           style="fill:#a19e99;fill-opacity:1;stroke:#000000;stroke-width:0.62017244;stroke-linecap:butt;stroke-linejoin:miter;stroke-miterlimit:4;stroke-opacity:1;stroke-dasharray:none"
           d="m -211.56054,727.33724 5.90641,-7.75215 10.05934,8.67503 -4.79895,5.72183 z"
           id="path3002"
           inkscape:connector-curvature="0" />
      </g>
    </g>
  </g>
</svg>
